<svg width="25" height="25" viewBox="0 0 25 25" fill="none" xmlns="http://www.w3.org/2000/svg">
<path fill-rule="evenodd" clip-rule="evenodd" d="M8.17456 20.3099V9.45047H4.69016V20.3099H8.17456ZM6.56247 7.80664C7.72394 7.80664 8.44748 6.97521 8.44748 5.93433C8.42844 4.87441 7.72394 4.06201 6.58151 4.06201C5.43908 4.06201 4.6965 4.87441 4.6965 5.93433C4.6965 6.97521 5.42004 7.80664 6.53708 7.80664H6.56247Z" fill="black"/>
<path fill-rule="evenodd" clip-rule="evenodd" d="M16.9205 9.20288C15.0736 9.20288 14.2802 10.2438 13.7725 10.9673V9.45675H10.2817V20.3098H13.7725V14.128C13.7725 13.8107 13.7979 13.4933 13.8931 13.2712C14.1469 12.6365 14.7181 11.9828 15.6829 11.9828C16.9459 11.9828 17.4536 12.9539 17.4536 14.3755V20.3098H20.9444V13.9694C20.9444 10.7134 19.218 9.20288 16.9205 9.20288V9.20288Z" fill="black"/>
<path d="M23.0515 0H2.71628C1.60559 0 0.634521 0.799701 0.634521 1.8977V22.2774C0.634521 23.3817 1.60559 24.3655 2.71628 24.3655H23.0452C24.1622 24.3655 25 23.3754 25 22.2774V1.8977C25.0063 0.799701 24.1622 0 23.0515 0ZM22.8484 22.3408H2.86226C2.74802 22.3408 2.66551 22.252 2.66551 22.1441V2.15792C2.66551 2.08811 2.72898 2.03099 2.79244 2.03099H22.8484C22.9119 2.03099 22.9754 2.09445 22.9754 2.15792V22.2139C22.9754 22.271 22.9182 22.3408 22.8484 22.3408Z" fill="black"/>
</svg>
