<svg width="37" height="25" viewBox="0 0 37 25" fill="none" xmlns="http://www.w3.org/2000/svg">
<path fill-rule="evenodd" clip-rule="evenodd" d="M24.7224 0.0348267C26.7247 0.0532247 28.5632 1.78921 28.5957 3.92733C28.6243 7.0182 28.6048 10.1078 28.5957 13.1986C28.5775 15.2264 26.8533 17.0819 24.7471 17.1161C17.7943 17.1818 10.8415 17.1371 3.88746 17.1161C1.88518 17.0964 0.0479096 15.3617 0.0154261 13.2223C-0.0131594 10.1327 0.00503144 7.04186 0.0141268 3.9523C0.0336169 1.92851 1.75654 0.0676804 3.86407 0.0348267C10.8168 -0.0308806 17.7696 0.0124862 24.7224 0.0348267ZM2.61151 12.0987C2.61281 12.4561 2.61281 12.8136 2.61281 13.1723C2.61281 13.8518 3.19881 14.472 3.88746 14.4878C4.25647 14.4931 4.62548 14.4983 4.9945 14.5036C4.9854 14.4773 4.97631 14.451 4.96721 14.4247C4.56961 13.3498 3.68086 12.4942 2.61151 12.0987ZM26.01 12.0987C24.9407 12.5021 24.048 13.3866 23.6387 14.4891C23.9921 14.4878 24.3443 14.4878 24.6964 14.4878C25.3694 14.4878 25.9827 13.8951 25.997 13.1986C26.0035 12.832 26.0074 12.4653 26.01 12.0987ZM14.3342 3.97595C16.4378 3.99698 18.4076 5.64754 18.7818 7.76332C19.2846 10.6071 16.66 13.6941 13.474 13.0974C11.6289 12.7505 10.0801 11.1315 9.80595 9.24568C9.43694 6.69886 11.4886 4.03903 14.2172 3.97726C14.2562 3.97595 14.2952 3.97595 14.3342 3.97595ZM4.97501 2.66181C4.62159 2.66181 4.26817 2.66181 3.91475 2.66181C3.24299 2.66443 2.6284 3.25317 2.61281 3.9523C2.60761 4.3242 2.60371 4.69742 2.59981 5.06932C2.6258 5.06144 2.65049 5.05224 2.67517 5.04304C3.73803 4.64222 4.58391 3.74203 4.97501 2.66181ZM23.6348 2.64735C24.035 3.72889 24.9082 4.63303 25.9996 5.04698C25.9983 4.69085 25.9983 4.33472 25.9983 3.97858C25.9983 3.29786 25.4123 2.67757 24.7224 2.66312C24.3599 2.65655 23.9973 2.6513 23.6348 2.64735Z" fill="#375DF1"/>
<path d="M31.3692 5.0205C31.9905 5.13397 32.4646 5.67813 32.4935 6.32235C32.4935 9.34211 32.5032 12.3619 32.4935 15.3804C32.4658 18.3282 29.9698 21.0478 26.8465 21.0576H4.65437C3.50712 21.0051 2.87499 19.2872 3.98846 18.6161C4.17183 18.5051 4.27437 18.4465 4.65437 18.4295C12.0638 18.4295 19.4745 18.5002 26.8839 18.4295C28.4607 18.4038 29.8902 17.0044 29.895 15.3426V6.32235C29.9288 5.55856 30.5947 4.94973 31.3692 5.0205Z" fill="#375DF1"/>
<path d="M35.2659 8.96294C35.8872 9.07641 36.3613 9.62058 36.3902 10.2648C36.3902 12.7709 36.3975 15.2782 36.3902 17.7843C36.3553 21.5129 33.1982 24.9878 29.2136 25H8.5511C7.66443 24.9597 7.00938 23.991 7.35681 23.1698C7.52449 22.7709 7.89846 22.4707 8.31948 22.3926C8.42081 22.3743 8.44735 22.3768 8.5511 22.3719C15.4479 22.3719 22.3434 22.3939 29.2402 22.3719C31.6034 22.3499 33.7845 20.2867 33.7917 17.7379V10.2648C33.8255 9.50101 34.4914 8.89217 35.2659 8.96294Z" fill="#375DF1"/>
<path fill-rule="evenodd" clip-rule="evenodd" d="M14.2929 6.60516C13.0145 6.61699 11.9622 8.13987 12.5338 9.39733C13.0418 10.5155 14.706 10.8913 15.6323 10.0188C16.7093 9.00577 16.1819 6.65904 14.3565 6.60648C14.3358 6.60516 14.315 6.60516 14.2929 6.60516Z" fill="#375DF1"/>
</svg>
