<svg width="120" height="24" viewBox="0 0 120 24" fill="none" xmlns="http://www.w3.org/2000/svg">
<path d="M17.5933 20.991C17.433 20.9916 17.2749 20.9539 17.1323 20.8811L12.0213 18.2123L6.91042 20.8811C6.74446 20.9681 6.55735 21.007 6.37035 20.9932C6.18335 20.9795 6.00396 20.9137 5.85259 20.8033C5.70122 20.6929 5.58393 20.5424 5.51405 20.3689C5.44418 20.1953 5.42452 20.0057 5.45732 19.8216L6.45946 14.1942L2.33064 10.1961C2.20182 10.0679 2.11044 9.90714 2.0663 9.73104C2.02216 9.55495 2.02693 9.3702 2.0801 9.1966C2.13818 9.01896 2.24503 8.86112 2.38851 8.74098C2.53199 8.62084 2.70636 8.54322 2.89184 8.51693L8.60404 7.68732L11.1194 2.55975C11.2015 2.39076 11.3296 2.24824 11.4891 2.14852C11.6486 2.0488 11.8331 1.99591 12.0213 1.99591C12.2096 1.99591 12.3941 2.0488 12.5536 2.14852C12.7131 2.24824 12.8412 2.39076 12.9233 2.55975L15.4687 7.67732L21.1809 8.50693C21.3664 8.53322 21.5408 8.61084 21.6842 8.73098C21.8277 8.85112 21.9346 9.00897 21.9927 9.18661C22.0458 9.3602 22.0506 9.54496 22.0065 9.72105C21.9623 9.89714 21.8709 10.0579 21.7421 10.1861L17.6133 14.1842L18.6154 19.8116C18.6512 19.999 18.6325 20.1926 18.5615 20.3698C18.4904 20.5469 18.3701 20.7 18.2146 20.8111C18.0331 20.9379 17.8146 21.0012 17.5933 20.991V20.991Z" fill="#FFAB48"/>
<path d="M41.5933 20.991C41.433 20.9916 41.2749 20.9539 41.1323 20.8811L36.0213 18.2123L30.9104 20.8811C30.7445 20.9681 30.5573 21.007 30.3703 20.9932C30.1833 20.9795 30.004 20.9137 29.8526 20.8033C29.7012 20.6929 29.5839 20.5424 29.5141 20.3689C29.4442 20.1953 29.4245 20.0057 29.4573 19.8216L30.4595 14.1942L26.3306 10.1961C26.2018 10.0679 26.1104 9.90714 26.0663 9.73104C26.0222 9.55495 26.0269 9.3702 26.0801 9.1966C26.1382 9.01896 26.245 8.86112 26.3885 8.74098C26.532 8.62084 26.7064 8.54322 26.8918 8.51693L32.604 7.68732L35.1194 2.55975C35.2015 2.39076 35.3296 2.24824 35.4891 2.14852C35.6486 2.0488 35.8331 1.99591 36.0213 1.99591C36.2096 1.99591 36.3941 2.0488 36.5536 2.14852C36.7131 2.24824 36.8412 2.39076 36.9233 2.55975L39.4687 7.67732L45.1809 8.50693C45.3664 8.53322 45.5408 8.61084 45.6842 8.73098C45.8277 8.85112 45.9346 9.00897 45.9927 9.18661C46.0458 9.3602 46.0506 9.54496 46.0065 9.72105C45.9623 9.89714 45.8709 10.0579 45.7421 10.1861L41.6133 14.1842L42.6154 19.8116C42.6512 19.999 42.6325 20.1926 42.5615 20.3698C42.4904 20.5469 42.3701 20.7 42.2146 20.8111C42.0331 20.9379 41.8146 21.0012 41.5933 20.991V20.991Z" fill="#FFAB48"/>
<path d="M65.5933 20.991C65.433 20.9916 65.2749 20.9539 65.1323 20.8811L60.0213 18.2123L54.9104 20.8811C54.7445 20.9681 54.5573 21.007 54.3703 20.9932C54.1833 20.9795 54.004 20.9137 53.8526 20.8033C53.7012 20.6929 53.5839 20.5424 53.5141 20.3689C53.4442 20.1953 53.4245 20.0057 53.4573 19.8216L54.4595 14.1942L50.3306 10.1961C50.2018 10.0679 50.1104 9.90714 50.0663 9.73104C50.0222 9.55495 50.0269 9.3702 50.0801 9.1966C50.1382 9.01896 50.245 8.86112 50.3885 8.74098C50.532 8.62084 50.7064 8.54322 50.8918 8.51693L56.604 7.68732L59.1194 2.55975C59.2015 2.39076 59.3296 2.24824 59.4891 2.14852C59.6486 2.0488 59.8331 1.99591 60.0213 1.99591C60.2096 1.99591 60.3941 2.0488 60.5536 2.14852C60.7131 2.24824 60.8412 2.39076 60.9233 2.55975L63.4687 7.67732L69.1809 8.50693C69.3664 8.53322 69.5408 8.61084 69.6842 8.73098C69.8277 8.85112 69.9346 9.00897 69.9927 9.18661C70.0458 9.3602 70.0506 9.54496 70.0065 9.72105C69.9623 9.89714 69.8709 10.0579 69.7421 10.1861L65.6133 14.1842L66.6154 19.8116C66.6512 19.999 66.6325 20.1926 66.5615 20.3698C66.4904 20.5469 66.3701 20.7 66.2146 20.8111C66.0331 20.9379 65.8146 21.0012 65.5933 20.991V20.991Z" fill="#FFAB48"/>
<path d="M89.5933 20.991C89.433 20.9916 89.2749 20.9539 89.1323 20.8811L84.0213 18.2123L78.9104 20.8811C78.7445 20.9681 78.5573 21.007 78.3703 20.9932C78.1833 20.9795 78.004 20.9137 77.8526 20.8033C77.7012 20.6929 77.5839 20.5424 77.5141 20.3689C77.4442 20.1953 77.4245 20.0057 77.4573 19.8216L78.4595 14.1942L74.3306 10.1961C74.2018 10.0679 74.1104 9.90714 74.0663 9.73104C74.0222 9.55495 74.0269 9.3702 74.0801 9.1966C74.1382 9.01896 74.245 8.86112 74.3885 8.74098C74.532 8.62084 74.7064 8.54322 74.8918 8.51693L80.604 7.68732L83.1194 2.55975C83.2015 2.39076 83.3296 2.24824 83.4891 2.14852C83.6486 2.0488 83.8331 1.99591 84.0213 1.99591C84.2096 1.99591 84.3941 2.0488 84.5536 2.14852C84.7131 2.24824 84.8412 2.39076 84.9233 2.55975L87.4687 7.67732L93.1809 8.50693C93.3664 8.53322 93.5408 8.61084 93.6842 8.73098C93.8277 8.85112 93.9346 9.00897 93.9927 9.18661C94.0458 9.3602 94.0506 9.54496 94.0065 9.72105C93.9623 9.89714 93.8709 10.0579 93.7421 10.1861L89.6133 14.1842L90.6154 19.8116C90.6512 19.999 90.6325 20.1926 90.5615 20.3698C90.4904 20.5469 90.3701 20.7 90.2146 20.8111C90.0331 20.9379 89.8146 21.0012 89.5933 20.991V20.991Z" fill="#FFAB48"/>
<path d="M113.612 20.5914L113.593 20.991L113.592 20.591C113.496 20.5914 113.401 20.5689 113.316 20.5256C113.315 20.5253 113.315 20.5251 113.314 20.5249L108.206 17.8578L108.021 17.7611L107.836 17.8578L102.725 20.5265L102.725 20.5268C102.625 20.5792 102.512 20.6026 102.4 20.5943C102.287 20.586 102.179 20.5464 102.088 20.4801C101.997 20.4138 101.927 20.3234 101.885 20.2195C101.843 20.1155 101.831 20.0019 101.851 19.8917L101.492 19.8278L101.851 19.8917L102.853 14.2644L102.891 14.0549L102.738 13.9069L98.6111 9.91093C98.5347 9.83424 98.4805 9.73847 98.4543 9.63379C98.4282 9.52956 98.4307 9.42026 98.4615 9.31734C98.4965 9.21239 98.5601 9.11901 98.6453 9.04766C98.7315 8.9755 98.8363 8.92879 98.948 8.91297L98.9493 8.91277L104.662 8.08317L104.87 8.05285L104.963 7.86349L107.479 2.73592L107.479 2.73448C107.528 2.6332 107.605 2.54763 107.701 2.4877C107.797 2.42776 107.908 2.39591 108.021 2.39591C108.135 2.39591 108.246 2.42776 108.342 2.4877C108.437 2.54763 108.514 2.6332 108.563 2.73448L108.563 2.73449L108.565 2.73789L111.111 7.85546L111.204 8.04306L111.411 8.07317L117.123 8.90278L117.125 8.90297C117.236 8.9188 117.341 8.96551 117.427 9.03767C117.513 9.10902 117.576 9.2024 117.611 9.30736C117.642 9.41027 117.645 9.51956 117.618 9.62379C117.592 9.72849 117.538 9.82427 117.462 9.90096L113.335 13.8969L113.182 14.0449L113.219 14.2544L114.222 19.8817L114.222 19.8817L114.223 19.8866C114.244 19.9988 114.233 20.1148 114.19 20.2209C114.148 20.3263 114.076 20.4178 113.984 20.4844C113.875 20.5599 113.744 20.5975 113.612 20.5914Z" fill="white" stroke="black" stroke-width="0.8"/>
</svg>
