<svg width="469" height="423" viewBox="0 0 469 423" fill="none" xmlns="http://www.w3.org/2000/svg">
<g clip-path="url(#clip0)">
<path d="M448.32 14.9314H240.812C229.391 14.9314 220.132 24.2033 220.132 35.6408V316.74C220.132 328.177 229.391 337.449 240.812 337.449H448.32C459.741 337.449 469 328.177 469 316.74V35.6408C469 24.2033 459.741 14.9314 448.32 14.9314Z" fill="#F2F2F2"/>
<path d="M436.391 0.271484H228.884C217.462 0.271484 208.203 9.5434 208.203 20.9809V302.08C208.203 313.517 217.462 322.789 228.884 322.789H436.391C447.813 322.789 457.072 313.517 457.072 302.08V20.9809C457.072 9.5434 447.813 0.271484 436.391 0.271484Z" stroke="#3F3D56" stroke-miterlimit="10"/>
<path d="M442.161 33.6475H220.945V289.413H442.161V33.6475Z" stroke="#3F3D56" stroke-miterlimit="10"/>
<path d="M332.638 22.2613C335.632 22.2613 338.06 19.8304 338.06 16.8317C338.06 13.833 335.632 11.4021 332.638 11.4021C329.643 11.4021 327.216 13.833 327.216 16.8317C327.216 19.8304 329.643 22.2613 332.638 22.2613Z" stroke="#3F3D56" stroke-miterlimit="10"/>
<path d="M332.638 317.903C339.225 317.903 344.566 312.555 344.566 305.957C344.566 299.36 339.225 294.012 332.638 294.012C326.05 294.012 320.709 299.36 320.709 305.957C320.709 312.555 326.05 317.903 332.638 317.903Z" stroke="#3F3D56" stroke-miterlimit="10"/>
<path d="M325.855 61.6623C321.084 61.6623 316.359 62.6034 311.951 64.4318C307.543 66.2603 303.538 68.9403 300.164 72.3188C296.79 75.6973 294.114 79.7082 292.288 84.1225C290.462 88.5367 289.522 93.2679 289.522 98.0459C289.522 118.14 327.585 192.253 327.585 192.253C327.585 192.253 362.187 118.14 362.187 98.0458C362.187 88.3963 358.359 79.142 351.546 72.3188C344.732 65.4956 335.491 61.6623 325.855 61.6623V61.6623ZM325.855 122.302C322.091 122.302 318.411 121.184 315.282 119.09C312.152 116.996 309.713 114.019 308.272 110.537C306.832 107.054 306.455 103.222 307.189 99.5255C307.924 95.8286 309.736 92.4327 312.398 89.7674C315.059 87.1021 318.45 85.287 322.142 84.5517C325.834 83.8163 329.66 84.1937 333.138 85.6362C336.615 87.0786 339.588 89.5213 341.679 92.6554C343.77 95.7895 344.886 99.4742 344.886 103.243C344.886 108.298 342.881 113.145 339.312 116.72C335.743 120.294 330.902 122.302 325.855 122.302V122.302Z" fill="#375DF1"/>
<path d="M325.86 229.4C345.923 229.4 362.187 224.052 362.187 217.455C362.187 210.858 345.923 205.51 325.86 205.51C305.797 205.51 289.533 210.858 289.533 217.455C289.533 224.052 305.797 229.4 325.86 229.4Z" fill="#375DF1"/>
<path d="M196.21 52.1009C193.899 52.2317 191.67 53.0045 189.773 54.3329C187.876 55.6612 186.386 57.4925 185.47 59.6215C182.784 66.1228 186.242 73.7595 191.433 78.5003C196.624 83.2411 203.293 85.9509 209.352 89.5128C217.49 94.297 224.803 100.938 228.875 109.463C232.947 117.988 233.38 128.548 228.593 136.693C224.151 144.252 216.073 148.776 208.368 152.949" stroke="#3F3D56" stroke-miterlimit="10"/>
<path d="M203.053 57.2822C208.293 57.2822 212.541 55.2159 212.541 52.667C212.541 50.1182 208.293 48.0519 203.053 48.0519C197.812 48.0519 193.564 50.1182 193.564 52.667C193.564 55.2159 197.812 57.2822 203.053 57.2822Z" fill="#57B894"/>
<path d="M210.643 87.6879C215.884 87.6879 220.132 85.6216 220.132 83.0727C220.132 80.5239 215.884 78.4576 210.643 78.4576C205.403 78.4576 201.155 80.5239 201.155 83.0727C201.155 85.6216 205.403 87.6879 210.643 87.6879Z" fill="#57B894"/>
<path d="M193.293 92.5745C198.533 92.5745 202.781 90.5083 202.781 87.9594C202.781 85.4105 198.533 83.3442 193.293 83.3442C188.053 83.3442 183.805 85.4105 183.805 87.9594C183.805 90.5083 188.053 92.5745 193.293 92.5745Z" fill="#57B894"/>
<path d="M220.403 118.094C225.643 118.094 229.891 116.027 229.891 113.478C229.891 110.93 225.643 108.863 220.403 108.863C215.163 108.863 210.914 110.93 210.914 113.478C210.914 116.027 215.163 118.094 220.403 118.094Z" fill="#57B894"/>
<path d="M239.38 118.094C244.62 118.094 248.868 116.027 248.868 113.478C248.868 110.93 244.62 108.863 239.38 108.863C234.139 108.863 229.891 110.93 229.891 113.478C229.891 116.027 234.139 118.094 239.38 118.094Z" fill="#57B894"/>
<path d="M25.7494 422.728H220.132" stroke="#3F3D56" stroke-miterlimit="10"/>
<path d="M18.6206 328.665C16.4685 328.787 14.3927 329.507 12.6261 330.744C10.8594 331.981 9.47184 333.686 8.61881 335.668C6.11784 341.722 9.33802 348.834 14.1721 353.248C19.0062 357.663 25.2158 360.186 30.8578 363.503C38.436 367.958 45.2456 374.142 49.0373 382.081C52.8291 390.019 53.2324 399.853 48.7754 407.437C44.6385 414.476 37.1162 418.689 29.9419 422.574" stroke="#3F3D56" stroke-miterlimit="10"/>
<path d="M24.9921 333.49C29.8718 333.49 33.8276 331.566 33.8276 329.193C33.8276 326.819 29.8718 324.895 24.9921 324.895C20.1123 324.895 16.1565 326.819 16.1565 329.193C16.1565 331.566 20.1123 333.49 24.9921 333.49Z" fill="#57B894"/>
<path d="M32.0605 361.804C36.9402 361.804 40.896 359.88 40.896 357.506C40.896 355.133 36.9402 353.209 32.0605 353.209C27.1807 353.209 23.2249 355.133 23.2249 357.506C23.2249 359.88 27.1807 361.804 32.0605 361.804Z" fill="#57B894"/>
<path d="M15.904 366.354C20.7838 366.354 24.7396 364.43 24.7396 362.057C24.7396 359.683 20.7838 357.759 15.904 357.759C11.0243 357.759 7.06848 359.683 7.06848 362.057C7.06848 364.43 11.0243 366.354 15.904 366.354Z" fill="#57B894"/>
<path d="M41.1485 390.117C46.0282 390.117 49.9841 388.193 49.9841 385.82C49.9841 383.446 46.0282 381.522 41.1485 381.522C36.2687 381.522 32.3129 383.446 32.3129 385.82C32.3129 388.193 36.2687 390.117 41.1485 390.117Z" fill="#57B894"/>
<path d="M58.8196 390.117C63.6994 390.117 67.6552 388.193 67.6552 385.82C67.6552 383.446 63.6994 381.522 58.8196 381.522C53.9399 381.522 49.9841 383.446 49.9841 385.82C49.9841 388.193 53.9399 390.117 58.8196 390.117Z" fill="#57B894"/>
<path d="M40.0449 346.029C41.8025 346.128 43.4977 346.716 44.9405 347.726C46.3832 348.736 47.5164 350.129 48.2131 351.748C50.2555 356.692 47.6257 362.5 43.6779 366.105C39.73 369.71 34.6588 371.771 30.0512 374.48C23.8623 378.118 18.3012 383.168 15.2046 389.651C12.108 396.134 11.7786 404.165 15.4185 410.359C18.797 416.107 24.9402 419.548 30.7992 422.721" stroke="#3F3D56" stroke-miterlimit="10"/>
<path d="M34.8416 349.969C38.8267 349.969 42.0573 348.398 42.0573 346.459C42.0573 344.521 38.8267 342.95 34.8416 342.95C30.8564 342.95 27.6259 344.521 27.6259 346.459C27.6259 348.398 30.8564 349.969 34.8416 349.969Z" fill="#57B894"/>
<path d="M29.069 373.092C33.0542 373.092 36.2848 371.521 36.2848 369.582C36.2848 367.644 33.0542 366.072 29.069 366.072C25.0839 366.072 21.8533 367.644 21.8533 369.582C21.8533 371.521 25.0839 373.092 29.069 373.092Z" fill="#57B894"/>
<path d="M42.2635 376.808C46.2486 376.808 49.4792 375.237 49.4792 373.298C49.4792 371.36 46.2486 369.789 42.2635 369.789C38.2783 369.789 35.0478 371.36 35.0478 373.298C35.0478 375.237 38.2783 376.808 42.2635 376.808Z" fill="#57B894"/>
<path d="M21.6472 396.215C25.6323 396.215 28.8629 394.643 28.8629 392.705C28.8629 390.767 25.6323 389.195 21.6472 389.195C17.662 389.195 14.4315 390.767 14.4315 392.705C14.4315 394.643 17.662 396.215 21.6472 396.215Z" fill="#57B894"/>
<path d="M7.21571 396.215C11.2008 396.215 14.4314 394.643 14.4314 392.705C14.4314 390.767 11.2008 389.195 7.21571 389.195C3.23059 389.195 0 390.767 0 392.705C0 394.643 3.23059 396.215 7.21571 396.215Z" fill="#57B894"/>
<path d="M70.4018 400.435C70.4018 400.435 75.4507 402.963 78.9849 403.468C82.5191 403.974 84.507 400.394 83.7655 399.15C83.024 397.907 86.0534 398.918 88.0729 403.468C88.0729 403.468 96.656 413.58 101.705 414.086C106.754 414.592 106.793 421.437 104.229 421.67C101.453 421.923 96.6561 423.692 90.5974 421.67C84.5387 419.648 78.9849 414.086 76.4605 414.086C73.936 414.086 65.3529 410.041 67.8774 408.019C70.4018 405.996 70.4018 400.435 70.4018 400.435Z" fill="#3F3D56"/>
<path d="M120.164 411.858C122.741 412.057 125.334 411.897 127.867 411.385C131.337 410.54 131.856 406.478 130.706 405.598C129.556 404.719 132.744 404.532 136.306 408.007C136.306 408.007 148.024 414.206 152.9 412.799C157.775 411.391 160.349 417.733 158.055 418.902C154.165 421.039 149.84 422.261 145.408 422.476C139.033 422.85 131.803 421.244 129.459 422.182C127.115 423.12 117.646 422.555 119.24 419.739C120.835 416.923 120.164 411.858 120.164 411.858Z" fill="#3F3D56"/>
<path d="M111.581 170.687C122.455 170.687 131.271 161.859 131.271 150.969C131.271 140.079 122.455 131.25 111.581 131.25C100.706 131.25 91.8899 140.079 91.8899 150.969C91.8899 161.859 100.706 170.687 111.581 170.687Z" fill="#FFC1C7"/>
<path d="M96.1815 158.806C96.1815 158.806 99.2108 180.041 92.1423 183.074C85.0739 186.108 127.99 185.097 127.99 185.097C127.99 185.097 121.931 165.884 123.446 160.828C124.96 155.772 96.1815 158.806 96.1815 158.806Z" fill="#FFC1C7"/>
<path d="M89.113 279.644C89.113 279.644 87.5983 318.069 86.0837 322.114C84.569 326.159 83.0543 353.461 83.0543 353.461L69.9272 403.01L82.0446 407.055C82.0446 407.055 98.7059 377.73 100.725 374.191C102.745 370.652 118.902 314.025 118.902 314.025C118.902 314.025 117.387 348.911 117.387 360.54C117.387 372.169 120.416 414.639 120.416 414.639L130.009 413.628L142.631 360.034C142.631 360.034 160.807 287.733 148.69 279.644C136.573 271.554 89.113 279.644 89.113 279.644Z" fill="#2F2E41"/>
<path d="M162.827 291.778C162.827 291.778 163.332 321.103 157.273 316.553C151.214 312.002 157.273 289.25 157.273 289.25L162.827 291.778Z" fill="#FFC1C7"/>
<path d="M79.0152 281.666C79.0152 281.666 79.5201 310.991 73.4614 306.441C67.4027 301.89 73.4614 279.138 73.4614 279.138L79.0152 281.666Z" fill="#FFC1C7"/>
<path d="M153.234 196.22C153.234 196.22 143.136 184.591 134.553 186.108C125.97 187.625 79.0152 187.119 79.0152 187.119C79.0152 187.119 63.3636 206.838 67.4027 210.882C71.4419 214.927 84.569 286.722 84.569 286.722C84.569 286.722 119.406 282.172 131.524 282.172C143.641 282.172 148.69 280.149 148.69 280.149C148.69 280.149 132.533 247.791 140.107 233.129C147.68 218.466 158.788 202.793 158.788 202.793L153.234 196.22Z" fill="#375DF1"/>
<path d="M150.205 199.759L158.788 202.793C158.788 202.793 163.837 220.489 163.837 234.646C163.837 248.802 164.342 255.881 166.361 260.937C168.381 265.993 174.944 289.756 171.41 294.812C169.459 297.69 167.074 300.248 164.342 302.396L152.729 301.385C152.729 301.385 152.224 284.7 149.195 283.183C146.165 281.666 142.126 272.06 142.126 272.06C142.126 272.06 132.533 241.218 138.592 231.106C144.651 220.994 150.205 199.759 150.205 199.759Z" fill="#375DF1"/>
<path d="M117.892 218.466C117.892 218.466 122.941 196.22 113.348 197.231C103.755 198.242 90.6277 198.748 87.0934 198.748C83.5592 198.748 63.3636 196.22 60.3343 209.366C57.3049 222.511 53.2658 238.69 61.849 248.802C61.849 248.802 64.8783 293.295 76.4908 296.329C88.1032 299.362 118.901 302.901 130.009 288.239C141.117 273.577 136.573 257.397 136.573 257.397H131.524L117.892 218.466Z" fill="#3F3D56"/>
<path d="M134.553 258.409L138.592 231.106L136.573 259.42L134.553 258.409Z" fill="#3F3D56"/>
<path opacity="0.1" d="M66.8978 252.341C66.8978 252.341 75.4809 256.386 93.1521 253.858V261.442L66.8978 259.42V252.341Z" fill="black"/>
<path d="M113.095 196.978L126.222 189.9L115.115 199.507L113.095 196.978Z" fill="#3F3D56"/>
<path d="M141.117 189.647C141.117 189.647 151.214 193.186 151.214 189.647C151.214 186.108 142.126 183.074 136.573 181.052C131.019 179.03 104.765 175.996 100.725 174.479C96.6863 172.962 77.5005 170.434 75.9859 176.502C74.4712 182.569 73.9663 195.209 81.5396 196.726C89.113 198.242 108.804 194.198 118.901 195.209C128.999 196.22 141.117 189.647 141.117 189.647Z" fill="#1E4CFF"/>
<path opacity="0.1" d="M141.048 190.004C141.048 190.004 151.146 193.543 151.146 190.004C151.146 186.465 142.057 183.431 136.504 181.409C130.95 179.386 104.696 176.353 100.657 174.836C96.6174 173.319 77.4316 170.791 75.917 176.858C74.4023 182.926 73.8974 195.566 81.4708 197.082C89.0441 198.599 108.735 194.554 118.833 195.566C128.93 196.577 141.048 190.004 141.048 190.004Z" fill="black"/>
<path d="M70.6845 201.023L74.1161 193.805L74.7239 202.54L70.6845 201.023Z" fill="#3F3D56"/>
<path d="M108.168 171.321C118.349 171.321 126.603 161.719 126.603 149.874C126.603 138.029 118.349 128.427 108.168 128.427C97.987 128.427 89.7335 138.029 89.7335 149.874C89.7335 161.719 97.987 171.321 108.168 171.321Z" fill="#2F2E41"/>
<path d="M111.421 150.146C121.603 150.146 129.856 144.919 129.856 138.472C129.856 132.025 121.603 126.798 111.421 126.798C101.24 126.798 92.9867 132.025 92.9867 138.472C92.9867 144.919 101.24 150.146 111.421 150.146Z" fill="#2F2E41"/>
<path d="M125.79 159.376C126.838 159.376 127.687 157.917 127.687 156.118C127.687 154.319 126.838 152.86 125.79 152.86C124.742 152.86 123.892 154.319 123.892 156.118C123.892 157.917 124.742 159.376 125.79 159.376Z" fill="#FFC1C7"/>
<path d="M123.143 135.533C125.082 134.47 126.739 132.548 127.979 129.923C128.1 130.506 128.133 131.105 128.076 131.699C128.881 131.608 129.663 131.371 130.385 131.002L130.212 132.894C131.605 132.039 132.885 131.013 134.022 129.838C134.331 132.599 133.869 135.392 132.688 137.906C131.682 139.895 130.315 141.189 128.962 142.463" fill="#2F2E41"/>
</g>
<defs>
<clipPath id="clip0">
<rect width="469" height="423" fill="white"/>
</clipPath>
</defs>
</svg>
