<svg width="216" height="52" viewBox="0 0 216 52" fill="none" xmlns="http://www.w3.org/2000/svg">
<path d="M67.1484 38.2812C66.1641 38.2812 65.4375 38.0762 64.9688 37.666C64.5 37.2559 64.2656 36.5996 64.2656 35.6973V13.373C63.8906 13.4082 63.4219 13.4785 62.8594 13.584C62.3086 13.6777 61.7285 13.8184 61.1191 14.0059C60.5098 14.1934 59.9004 14.4219 59.291 14.6914C58.6816 14.9492 58.1367 15.2539 57.6562 15.6055C57.1758 15.9453 56.7832 16.332 56.4785 16.7656C56.1738 17.1992 56.0215 17.6797 56.0215 18.207C56.0215 18.582 56.0684 18.8809 56.1621 19.1035C56.2676 19.3262 56.3848 19.4961 56.5137 19.6133C56.6426 19.7188 56.7715 19.7891 56.9004 19.8242C57.041 19.8477 57.1406 19.8594 57.1992 19.8594C57.4922 19.8594 57.7324 19.8125 57.9199 19.7188C58.1074 19.6133 58.2773 19.5078 58.4297 19.4023C58.582 19.2852 58.7227 19.1797 58.8516 19.0859C58.9922 18.9805 59.1504 18.9277 59.3262 18.9277C59.4668 18.9277 59.6133 18.9629 59.7656 19.0332C59.9297 19.0918 60.0762 19.1914 60.2051 19.332C60.3457 19.4727 60.4629 19.6602 60.5566 19.8945C60.6504 20.1172 60.6973 20.3926 60.6973 20.7207C60.6973 21.1895 60.6035 21.5938 60.416 21.9336C60.2402 22.2734 60.0059 22.5605 59.7129 22.7949C59.4316 23.0176 59.1035 23.1875 58.7285 23.3047C58.3652 23.4102 58.002 23.4629 57.6387 23.4629C57.0762 23.4629 56.5664 23.3691 56.1094 23.1816C55.6641 22.9824 55.2832 22.7129 54.9668 22.373C54.6504 22.0332 54.4102 21.6348 54.2461 21.1777C54.082 20.7207 54 20.2344 54 19.7188C54 18.3477 54.375 17.1641 55.125 16.168C55.8867 15.1602 56.9238 14.3281 58.2363 13.6719C59.5488 13.0039 61.0781 12.5117 62.8242 12.1953C64.5703 11.8789 66.4395 11.7207 68.4316 11.7207C69.3809 11.7207 70.3066 11.7324 71.209 11.7559C72.1113 11.7676 72.9316 11.791 73.6699 11.8262C74.4199 11.8613 75.0645 11.9023 75.6035 11.9492C76.1426 11.9961 76.5352 12.0488 76.7812 12.1074C77.0156 12.166 77.2031 12.2539 77.3438 12.3711C77.4844 12.4766 77.5898 12.5996 77.6602 12.7402C77.7305 12.8809 77.7773 13.0332 77.8008 13.1973C77.8242 13.3496 77.8359 13.5078 77.8359 13.6719C77.8359 13.8008 77.8184 13.9531 77.7832 14.1289C77.748 14.293 77.6953 14.4512 77.625 14.6035C77.5547 14.7559 77.4668 14.8848 77.3613 14.9902C77.2559 15.0957 77.127 15.1484 76.9746 15.1484C76.8809 15.1484 76.7812 15.1074 76.6758 15.0254C76.582 14.9434 76.4473 14.8438 76.2715 14.7266C76.0957 14.6094 75.8555 14.4746 75.5508 14.3223C75.2578 14.1699 74.8652 14.0293 74.373 13.9004C73.8926 13.7715 73.2949 13.6543 72.5801 13.5488C71.877 13.4434 71.0215 13.373 70.0137 13.3379V35.6973C70.0137 36.5996 69.7793 37.2559 69.3105 37.666C68.8418 38.0762 68.1211 38.2812 67.1484 38.2812ZM82.0195 23.4629C82.4648 22.7832 82.9395 22.168 83.4434 21.6172C83.6543 21.3828 83.8828 21.1543 84.1289 20.9316C84.375 20.709 84.627 20.5098 84.8848 20.334C85.1543 20.1582 85.4297 20.0176 85.7109 19.9121C85.9922 19.8066 86.2734 19.7539 86.5547 19.7539C87.1523 19.7539 87.6211 19.9355 87.9609 20.2988C88.3008 20.6504 88.4707 21.1484 88.4707 21.793C88.4707 22.1914 88.4355 22.5781 88.3652 22.9531C88.3066 23.3164 88.1836 23.7617 87.9961 24.2891H87.5039C87.4336 23.9258 87.2695 23.627 87.0117 23.3926C86.7539 23.1465 86.3789 23.0234 85.8867 23.0234C85.5234 23.0234 85.166 23.0938 84.8145 23.2344C84.4629 23.3633 84.1172 23.5273 83.7773 23.7266C83.4492 23.9258 83.1328 24.1426 82.8281 24.377C82.5352 24.6113 82.2656 24.834 82.0195 25.0449V36.4531C82.0195 36.6055 81.9961 36.7871 81.9492 36.998C81.9023 37.209 81.7852 37.4082 81.5977 37.5957C81.4219 37.7832 81.1523 37.9414 80.7891 38.0703C80.4375 38.2109 79.9512 38.2812 79.3301 38.2812C78.709 38.2812 78.2168 38.2051 77.8535 38.0527C77.502 37.9121 77.2324 37.7422 77.0449 37.543C76.8574 37.3438 76.7402 37.1387 76.6934 36.9277C76.6465 36.7168 76.623 36.5469 76.623 36.418V22.8477C76.623 22.5078 76.541 22.2148 76.377 21.9688C76.2246 21.7109 75.9609 21.582 75.5859 21.582C75.3867 21.582 75.2168 21.6172 75.0762 21.6875C74.9355 21.7578 74.7832 21.8574 74.6191 21.9863L74.25 21.5469C74.5195 21.3242 74.8184 21.1074 75.1465 20.8965C75.4863 20.6738 75.8496 20.4805 76.2363 20.3164C76.623 20.1523 77.0391 20.0176 77.4844 19.9121C77.9297 19.8066 78.3984 19.7539 78.8906 19.7539C79.3945 19.7539 79.8223 19.8242 80.1738 19.9648C80.5371 20.0938 80.8301 20.2695 81.0527 20.4922C81.2871 20.7031 81.4688 20.9434 81.5977 21.2129C81.7266 21.4824 81.8203 21.7578 81.8789 22.0391C81.9492 22.3086 81.9902 22.5723 82.002 22.8301C82.0137 23.0762 82.0195 23.2871 82.0195 23.4629ZM98.2793 28.8945C98.2793 28.6016 98.1855 28.3789 97.998 28.2266C97.8105 28.0742 97.5703 27.998 97.2773 27.998C96.8672 27.998 96.4746 28.0918 96.0996 28.2793C95.7363 28.4668 95.4141 28.7422 95.1328 29.1055C94.8516 29.4688 94.6289 29.9199 94.4648 30.459C94.3008 30.9863 94.2188 31.6016 94.2188 32.3047C94.2188 32.9844 94.2656 33.5469 94.3594 33.9922C94.4648 34.4375 94.5996 34.7949 94.7637 35.0645C94.9395 35.3223 95.1387 35.5039 95.3613 35.6094C95.584 35.7148 95.8184 35.7676 96.0645 35.7676C96.3691 35.7676 96.6562 35.6914 96.9258 35.5391C97.1953 35.375 97.4297 35.1699 97.6289 34.9238C97.8281 34.6777 97.9863 34.4023 98.1035 34.0977C98.2207 33.793 98.2793 33.4883 98.2793 33.1836V28.8945ZM95.4844 21.1953C95.0859 21.1953 94.7168 21.2422 94.377 21.3359C94.0371 21.4297 93.7441 21.5469 93.498 21.6875C93.252 21.8281 93.0586 21.9863 92.918 22.1621C92.7773 22.3262 92.707 22.4844 92.707 22.6367C92.707 22.8125 92.7949 22.9414 92.9707 23.0234C93.1582 23.0938 93.3633 23.1816 93.5859 23.2871C93.8086 23.3809 94.0078 23.5215 94.1836 23.709C94.3711 23.8848 94.4648 24.1602 94.4648 24.5352C94.4648 24.7812 94.4121 25.0098 94.3066 25.2207C94.2129 25.4199 94.0781 25.6016 93.9023 25.7656C93.7383 25.918 93.5391 26.041 93.3047 26.1348C93.082 26.2168 92.8477 26.2578 92.6016 26.2578C91.9453 26.2578 91.4121 26.0352 91.002 25.5898C90.6035 25.1445 90.4043 24.5527 90.4043 23.8145C90.4043 23.0996 90.5918 22.4902 90.9668 21.9863C91.3418 21.4707 91.8281 21.0488 92.4258 20.7207C93.0352 20.3926 93.7207 20.1523 94.4824 20C95.2441 19.8359 96.0059 19.7539 96.7676 19.7539C97.6816 19.7539 98.5547 19.8535 99.3867 20.0527C100.219 20.252 100.951 20.5684 101.584 21.002C102.229 21.4355 102.738 21.9863 103.113 22.6543C103.5 23.3223 103.693 24.1309 103.693 25.0801V35.0117C103.693 35.1172 103.699 35.2344 103.711 35.3633C103.723 35.4922 103.752 35.6094 103.799 35.7148C103.846 35.8203 103.916 35.9082 104.01 35.9785C104.104 36.0488 104.238 36.084 104.414 36.084C104.625 36.084 104.818 36.0078 104.994 35.8555C105.182 35.6914 105.346 35.5273 105.486 35.3633L105.926 35.7324C105.75 35.9785 105.539 36.248 105.293 36.541C105.047 36.834 104.748 37.1094 104.396 37.3672C104.045 37.625 103.635 37.8418 103.166 38.0176C102.697 38.1934 102.164 38.2812 101.566 38.2812C100.828 38.2812 100.172 38.0645 99.5977 37.6309C99.0234 37.1855 98.6484 36.5059 98.4727 35.5918C98.0977 36.0957 97.7051 36.5176 97.2949 36.8574C96.8965 37.1973 96.4863 37.4727 96.0645 37.6836C95.6426 37.8945 95.2148 38.0469 94.7812 38.1406C94.3594 38.2344 93.9316 38.2812 93.498 38.2812C92.9355 38.2812 92.3906 38.1934 91.8633 38.0176C91.3359 37.8418 90.8613 37.5664 90.4395 37.1914C90.0293 36.8047 89.6953 36.3066 89.4375 35.6973C89.1914 35.0879 89.0684 34.3438 89.0684 33.4648C89.0684 32.3984 89.2793 31.5254 89.7012 30.8457C90.123 30.166 90.6738 29.5977 91.3535 29.1406C92.0449 28.6719 92.8242 28.2734 93.6914 27.9453C94.5703 27.6172 95.4668 27.2715 96.3809 26.9082C97.0605 26.6387 97.5527 26.2402 97.8574 25.7129C98.1738 25.1738 98.332 24.623 98.332 24.0605C98.332 23.1934 98.0742 22.502 97.5586 21.9863C97.0547 21.459 96.3633 21.1953 95.4844 21.1953ZM107.824 23.0586C107.754 22.5898 107.637 22.2266 107.473 21.9688C107.32 21.7109 107.057 21.582 106.682 21.582C106.482 21.582 106.307 21.6172 106.154 21.6875C106.014 21.7578 105.861 21.8574 105.697 21.9863L105.346 21.5469C105.615 21.3242 105.914 21.1074 106.242 20.8965C106.582 20.6738 106.945 20.4805 107.332 20.3164C107.719 20.1523 108.135 20.0176 108.58 19.9121C109.025 19.8066 109.494 19.7539 109.986 19.7539C110.689 19.7539 111.258 19.877 111.691 20.123C112.125 20.3574 112.465 20.6562 112.711 21.0195C112.969 21.3711 113.15 21.752 113.256 22.1621C113.361 22.5723 113.438 22.9414 113.484 23.2695C113.918 26.8203 114.404 29.5098 114.943 31.3379C115.482 33.166 116.121 34.0801 116.859 34.0801C117.27 34.0801 117.662 33.8574 118.037 33.4121C118.424 32.9668 118.758 32.3574 119.039 31.584C119.332 30.8105 119.566 29.9082 119.742 28.877C119.918 27.8457 120.006 26.7441 120.006 25.5723C120.006 24.7988 119.953 24.1484 119.848 23.6211C119.742 23.082 119.625 22.6309 119.496 22.2676C119.367 21.9043 119.25 21.6055 119.145 21.3711C119.039 21.125 118.986 20.9082 118.986 20.7207C118.986 20.5449 119.057 20.3984 119.197 20.2812C119.338 20.1641 119.502 20.0645 119.689 19.9824C119.889 19.9004 120.088 19.8418 120.287 19.8066C120.498 19.7715 120.668 19.7539 120.797 19.7539C121.137 19.7539 121.383 19.8008 121.535 19.8945C121.688 19.9883 121.811 20.1699 121.904 20.4395C122.01 20.7793 122.08 21.2305 122.115 21.793C122.162 22.3438 122.186 22.9355 122.186 23.5684C122.186 24.4707 122.121 25.4609 121.992 26.5391C121.875 27.6172 121.688 28.7012 121.43 29.791C121.184 30.8809 120.867 31.9355 120.48 32.9551C120.094 33.9746 119.631 34.8828 119.092 35.6797C118.564 36.4648 117.961 37.0977 117.281 37.5781C116.613 38.0469 115.863 38.2812 115.031 38.2812C114.059 38.2812 113.215 38 112.5 37.4375C111.785 36.875 111.176 36.1426 110.672 35.2402C110.18 34.3379 109.77 33.3242 109.441 32.1992C109.113 31.0742 108.844 29.9492 108.633 28.8242C108.434 27.6875 108.27 26.6152 108.141 25.6074C108.023 24.5879 107.918 23.7383 107.824 23.0586ZM129.674 29.9316C129.674 30.3066 129.727 30.7168 129.832 31.1621C129.949 31.5957 130.113 32.0352 130.324 32.4805C130.535 32.9258 130.793 33.3535 131.098 33.7637C131.414 34.1621 131.771 34.5195 132.17 34.8359C132.58 35.1523 133.031 35.4043 133.523 35.5918C134.016 35.7793 134.555 35.873 135.141 35.873C135.551 35.873 135.932 35.8262 136.283 35.7324C136.635 35.6387 136.963 35.5098 137.268 35.3457C137.572 35.1816 137.865 34.9941 138.146 34.7832C138.428 34.5605 138.709 34.3262 138.99 34.0801L139.43 34.502C139.16 34.8652 138.814 35.2637 138.393 35.6973C137.971 36.1309 137.461 36.541 136.863 36.9277C136.266 37.3027 135.568 37.6191 134.771 37.877C133.975 38.123 133.066 38.2461 132.047 38.2461C131.027 38.2461 130.031 38.0645 129.059 37.7012C128.098 37.3262 127.242 36.7695 126.492 36.0312C125.742 35.293 125.139 34.373 124.682 33.2715C124.236 32.1699 124.014 30.8809 124.014 29.4043C124.014 28.3379 124.148 27.3594 124.418 26.4688C124.688 25.5781 125.051 24.7754 125.508 24.0605C125.977 23.3457 126.516 22.7188 127.125 22.1797C127.746 21.6406 128.396 21.1953 129.076 20.8438C129.756 20.4805 130.447 20.2109 131.15 20.0352C131.865 19.8477 132.551 19.7539 133.207 19.7539C134.074 19.7539 134.83 19.8477 135.475 20.0352C136.119 20.2227 136.652 20.4746 137.074 20.791C137.508 21.1074 137.83 21.4766 138.041 21.8984C138.252 22.3086 138.357 22.7422 138.357 23.1992C138.357 23.75 138.199 24.248 137.883 24.6934C137.566 25.127 137.145 25.5078 136.617 25.8359L129.674 29.9316ZM133.207 26.3633C133.359 26.2695 133.482 26.1816 133.576 26.0996C133.682 26.0059 133.764 25.9004 133.822 25.7832C133.881 25.6543 133.922 25.502 133.945 25.3262C133.98 25.1387 133.998 24.9102 133.998 24.6406C133.998 24.3477 133.963 24.0254 133.893 23.6738C133.834 23.3105 133.729 22.9707 133.576 22.6543C133.424 22.3379 133.23 22.0742 132.996 21.8633C132.762 21.6523 132.48 21.5469 132.152 21.5469C131.73 21.5469 131.367 21.6758 131.062 21.9336C130.77 22.1797 130.523 22.502 130.324 22.9004C130.137 23.2988 129.984 23.7559 129.867 24.2715C129.762 24.7754 129.68 25.2852 129.621 25.8008C129.562 26.3164 129.527 26.8145 129.516 27.2949C129.504 27.7637 129.498 28.1621 129.498 28.4902L133.207 26.3633ZM146.883 36.4531C146.883 36.6055 146.854 36.7871 146.795 36.998C146.748 37.209 146.625 37.4082 146.426 37.5957C146.238 37.7832 145.957 37.9414 145.582 38.0703C145.219 38.2109 144.727 38.2812 144.105 38.2812C143.484 38.2812 142.998 38.2051 142.646 38.0527C142.295 37.9121 142.031 37.7422 141.855 37.543C141.691 37.3438 141.586 37.1387 141.539 36.9277C141.504 36.7168 141.486 36.5469 141.486 36.418V13.7422C141.486 13.4023 141.404 13.1094 141.24 12.8633C141.088 12.6055 140.824 12.4766 140.449 12.4766C140.25 12.4766 140.074 12.5117 139.922 12.582C139.781 12.6406 139.629 12.7344 139.465 12.8633L139.113 12.4414C139.383 12.2187 139.682 12.002 140.01 11.791C140.338 11.5684 140.695 11.375 141.082 11.2109C141.48 11.0469 141.902 10.9121 142.348 10.8066C142.793 10.7012 143.262 10.6484 143.754 10.6484C144.516 10.6484 145.107 10.7539 145.529 10.9648C145.951 11.1641 146.262 11.416 146.461 11.7207C146.66 12.0137 146.777 12.3301 146.812 12.6699C146.859 12.998 146.883 13.291 146.883 13.5488V36.4531ZM163.828 22.1973C164.871 20.6973 165.82 19.3672 166.676 18.207C167.543 17.0469 168.34 16.0391 169.066 15.1836C169.793 14.3164 170.467 13.5898 171.088 13.0039C171.721 12.418 172.33 11.9492 172.916 11.5977C173.514 11.2344 174.105 10.9766 174.691 10.8242C175.277 10.6719 175.893 10.5957 176.537 10.5957C178.072 10.5957 178.84 11.0879 178.84 12.0723C178.84 12.2012 178.828 12.3535 178.805 12.5293C178.781 12.7051 178.734 12.875 178.664 13.0391C178.605 13.2031 178.518 13.3437 178.4 13.4609C178.283 13.5781 178.137 13.6367 177.961 13.6367C177.832 13.6367 177.68 13.5723 177.504 13.4434C177.34 13.3145 177.146 13.1738 176.924 13.0215C176.701 12.8574 176.443 12.7109 176.15 12.582C175.857 12.4414 175.529 12.3711 175.166 12.3711C174.768 12.3711 174.311 12.5352 173.795 12.8633C173.291 13.1914 172.74 13.6367 172.143 14.1992C171.557 14.7617 170.941 15.418 170.297 16.168C169.664 16.9062 169.02 17.6914 168.363 18.5234C170.121 22.5312 171.668 26.0059 173.004 28.9473C174.352 31.8887 175.576 34.3262 176.678 36.2598C177.791 38.1816 178.816 39.6113 179.754 40.5488C180.691 41.4863 181.635 41.9551 182.584 41.9551C182.748 41.9551 182.912 41.9316 183.076 41.8848C183.24 41.8379 183.387 41.7852 183.516 41.7266C183.668 41.668 183.82 41.5918 183.973 41.498L184.342 42.1836C184.143 42.3008 183.867 42.4414 183.516 42.6055C183.176 42.7695 182.766 42.9219 182.285 43.0625C181.816 43.2148 181.295 43.3438 180.721 43.4492C180.146 43.5547 179.531 43.6074 178.875 43.6074C177.973 43.6074 177.135 43.4668 176.361 43.1855C175.588 42.9043 174.832 42.4473 174.094 41.8145C173.367 41.1934 172.646 40.373 171.932 39.3535C171.229 38.3457 170.49 37.1094 169.717 35.6445C168.955 34.1797 168.146 32.4746 167.291 30.5293C166.436 28.584 165.504 26.3574 164.496 23.8496L163.828 24.8516V35.6973C163.828 36.5996 163.588 37.2559 163.107 37.666C162.639 38.0762 161.918 38.2812 160.945 38.2812C159.961 38.2812 159.234 38.0762 158.766 37.666C158.297 37.2559 158.062 36.5996 158.062 35.6973V14.5332C158.062 14.2754 158.033 14.0703 157.975 13.918C157.916 13.7656 157.834 13.6484 157.729 13.5664C157.623 13.4727 157.494 13.4141 157.342 13.3906C157.201 13.3555 157.043 13.3379 156.867 13.3379C156.609 13.3379 156.287 13.3789 155.9 13.4609C155.525 13.543 155.127 13.666 154.705 13.8301C154.283 13.9941 153.855 14.1992 153.422 14.4453C153 14.6797 152.619 14.9492 152.279 15.2539C151.951 15.5586 151.682 15.8984 151.471 16.2734C151.26 16.6484 151.154 17.0527 151.154 17.4863C151.154 17.8613 151.201 18.1602 151.295 18.3828C151.4 18.6055 151.518 18.7754 151.646 18.8926C151.775 18.998 151.904 19.0684 152.033 19.1035C152.174 19.127 152.273 19.1387 152.332 19.1387C152.625 19.1387 152.865 19.0918 153.053 18.998C153.24 18.8926 153.41 18.7871 153.562 18.6816C153.715 18.5645 153.855 18.459 153.984 18.3652C154.125 18.2598 154.283 18.207 154.459 18.207C154.6 18.207 154.746 18.2422 154.898 18.3125C155.062 18.3711 155.209 18.4707 155.338 18.6113C155.479 18.752 155.596 18.9395 155.689 19.1738C155.783 19.3965 155.83 19.6719 155.83 20C155.83 20.4688 155.736 20.873 155.549 21.2129C155.373 21.5527 155.139 21.8398 154.846 22.0742C154.564 22.2969 154.236 22.4668 153.861 22.584C153.498 22.6895 153.135 22.7422 152.771 22.7422C152.209 22.7422 151.699 22.6484 151.242 22.4609C150.797 22.2617 150.416 21.9922 150.1 21.6523C149.783 21.3125 149.543 20.9141 149.379 20.457C149.215 20 149.133 19.5137 149.133 18.998C149.133 18.1895 149.279 17.4512 149.572 16.7832C149.865 16.1035 150.264 15.4941 150.768 14.9551C151.283 14.416 151.881 13.9473 152.561 13.5488C153.252 13.1387 153.996 12.7988 154.793 12.5293C155.59 12.2598 156.422 12.0605 157.289 11.9316C158.156 11.791 159.023 11.7207 159.891 11.7207C160.852 11.7207 161.596 11.8145 162.123 12.002C162.662 12.1777 163.055 12.3945 163.301 12.6523C163.559 12.9102 163.711 13.1797 163.758 13.4609C163.805 13.7422 163.828 13.9766 163.828 14.1641V22.1973ZM195.803 34.9414C195.803 35.0469 195.809 35.1641 195.82 35.293C195.832 35.4102 195.861 35.5273 195.908 35.6445C195.955 35.75 196.025 35.8379 196.119 35.9082C196.213 35.9785 196.348 36.0137 196.523 36.0137C196.746 36.0137 196.945 35.9375 197.121 35.7852C197.297 35.6211 197.461 35.457 197.613 35.293L198.035 35.6621C197.859 35.9082 197.637 36.1836 197.367 36.4883C197.109 36.7812 196.793 37.0625 196.418 37.332C196.043 37.6016 195.615 37.8242 195.135 38C194.654 38.1875 194.109 38.2812 193.5 38.2812C192.984 38.2812 192.533 38.2109 192.146 38.0703C191.771 37.9414 191.449 37.7656 191.18 37.543C190.922 37.3086 190.729 37.0391 190.6 36.7344C190.471 36.418 190.406 36.084 190.406 35.7324V34.9414C189.82 35.5742 189.205 36.1309 188.561 36.6113C188.279 36.8223 187.98 37.0273 187.664 37.2266C187.348 37.4258 187.02 37.6074 186.68 37.7715C186.34 37.9238 185.988 38.0469 185.625 38.1406C185.262 38.2344 184.898 38.2812 184.535 38.2812C183.832 38.2812 183.229 38.1582 182.725 37.9121C182.232 37.6543 181.834 37.3203 181.529 36.9102C181.225 36.5 181.002 36.0371 180.861 35.5215C180.721 35.0059 180.65 34.4902 180.65 33.9746V23.0938C180.65 22.9883 180.645 22.877 180.633 22.7598C180.621 22.6309 180.592 22.5137 180.545 22.4082C180.498 22.291 180.428 22.1973 180.334 22.127C180.24 22.0566 180.105 22.0215 179.93 22.0215C179.719 22.0215 179.52 22.1035 179.332 22.2676C179.156 22.4199 178.998 22.5781 178.857 22.7422L178.418 22.373C178.594 22.127 178.811 21.8574 179.068 21.5645C179.338 21.2598 179.66 20.9727 180.035 20.7031C180.41 20.4336 180.838 20.2109 181.318 20.0352C181.811 19.8477 182.355 19.7539 182.953 19.7539C183.469 19.7539 183.92 19.8242 184.307 19.9648C184.693 20.0938 185.016 20.2754 185.273 20.5098C185.531 20.7324 185.725 21.002 185.854 21.3184C185.982 21.623 186.047 21.9512 186.047 22.3027V34.0449C186.047 34.209 186.07 34.3789 186.117 34.5547C186.176 34.7188 186.252 34.8711 186.346 35.0117C186.451 35.1523 186.58 35.2695 186.732 35.3633C186.885 35.4453 187.066 35.4863 187.277 35.4863C187.617 35.4863 187.957 35.3984 188.297 35.2227C188.637 35.0469 188.947 34.8418 189.229 34.6074C189.51 34.3613 189.75 34.1211 189.949 33.8867C190.16 33.6523 190.312 33.4766 190.406 33.3594V23.0938C190.406 22.9883 190.4 22.877 190.389 22.7598C190.377 22.6309 190.348 22.5137 190.301 22.4082C190.254 22.291 190.184 22.1973 190.09 22.127C189.996 22.0566 189.861 22.0215 189.686 22.0215C189.475 22.0215 189.275 22.1035 189.088 22.2676C188.912 22.4199 188.754 22.5781 188.613 22.7422L188.174 22.373C188.35 22.127 188.566 21.8574 188.824 21.5645C189.094 21.2598 189.416 20.9727 189.791 20.7031C190.166 20.4336 190.594 20.2109 191.074 20.0352C191.566 19.8477 192.111 19.7539 192.709 19.7539C193.225 19.7539 193.676 19.8242 194.062 19.9648C194.449 20.0938 194.771 20.2754 195.029 20.5098C195.287 20.7324 195.48 21.002 195.609 21.3184C195.738 21.623 195.803 21.9512 195.803 22.3027V34.9414ZM214.453 22.5137C214.453 24.6582 214.242 26.7324 213.82 28.7363C213.41 30.7285 212.836 32.6035 212.098 34.3613C211.371 36.1074 210.504 37.7012 209.496 39.1426C208.488 40.5957 207.393 41.8379 206.209 42.8691C205.025 43.9004 203.771 44.7031 202.447 45.2773C201.135 45.8516 199.805 46.1387 198.457 46.1387C197.426 46.1387 196.629 45.9629 196.066 45.6113C195.504 45.2715 195.223 44.8086 195.223 44.2227C195.223 44 195.258 43.7832 195.328 43.5723C195.398 43.3613 195.492 43.1738 195.609 43.0098C195.727 42.8457 195.867 42.7109 196.031 42.6055C196.195 42.5117 196.371 42.4648 196.559 42.4648C196.781 42.4648 196.969 42.5762 197.121 42.7988C197.262 43.0215 197.414 43.2617 197.578 43.5195C197.742 43.7891 197.941 44.0352 198.176 44.2578C198.41 44.4805 198.732 44.5918 199.143 44.5918C199.67 44.5918 200.221 44.498 200.795 44.3105C201.369 44.1348 201.943 43.877 202.518 43.5371C203.104 43.1973 203.684 42.7812 204.258 42.2891C204.844 41.8086 205.418 41.2695 205.98 40.6719C205.652 39.4883 205.271 38.1992 204.838 36.8047C204.416 35.3984 203.965 33.9863 203.484 32.5684C203.016 31.1504 202.529 29.7852 202.025 28.4727C201.533 27.1484 201.047 25.9766 200.566 24.957C200.098 23.9375 199.641 23.123 199.195 22.5137C198.762 21.8926 198.375 21.582 198.035 21.582C197.812 21.582 197.643 21.6172 197.525 21.6875C197.396 21.7578 197.25 21.8574 197.086 21.9863L196.734 21.5469C196.969 21.3477 197.215 21.1426 197.473 20.9316C197.73 20.7207 198.035 20.5273 198.387 20.3516C198.738 20.1758 199.148 20.0352 199.617 19.9297C200.086 19.8125 200.648 19.7539 201.305 19.7539C202.02 19.7539 202.682 19.918 203.291 20.2461C203.912 20.5625 204.475 21.1543 204.979 22.0215C205.342 22.666 205.717 23.4395 206.104 24.3418C206.502 25.2441 206.9 26.252 207.299 27.3652C207.697 28.4785 208.096 29.6855 208.494 30.9863C208.904 32.2754 209.314 33.6289 209.725 35.0469C210.451 33.5234 211.037 31.9121 211.482 30.2129C211.928 28.502 212.15 26.7441 212.15 24.9395C212.15 24.2949 212.109 23.7441 212.027 23.2871C211.945 22.8301 211.852 22.4434 211.746 22.127C211.641 21.7988 211.547 21.5234 211.465 21.3008C211.383 21.0664 211.342 20.8613 211.342 20.6855C211.342 20.5098 211.412 20.3633 211.553 20.2461C211.693 20.1172 211.863 20.0176 212.062 19.9473C212.262 19.877 212.461 19.8301 212.66 19.8066C212.871 19.7715 213.047 19.7539 213.188 19.7539C213.504 19.7539 213.744 19.8184 213.908 19.9473C214.084 20.0762 214.213 20.2637 214.295 20.5098C214.377 20.7441 214.424 21.0312 214.436 21.3711C214.447 21.7109 214.453 22.0918 214.453 22.5137Z" fill="#375DF1"/>
<path d="M38 20.3056V46.9422C38 47.7787 37.6332 48.5809 36.9802 49.1724C36.3273 49.7639 35.4417 50.0962 34.5182 50.0962H5.48175C4.55833 50.0962 3.67274 49.7639 3.01978 49.1724C2.36683 48.5809 2 47.7787 2 46.9422V20.3056C2 15.9811 3.89642 11.8337 7.27208 8.77581C10.6477 5.71791 15.2261 4 20 4C24.7739 4 29.3523 5.71791 32.7279 8.77581C36.1036 11.8337 38 15.9811 38 20.3056V20.3056Z" fill="white" stroke="#425A66" stroke-width="3" stroke-miterlimit="10"/>
<path d="M6.72986 32.6827L6.3357 29.2192C6.3357 29.0441 6.25887 28.876 6.12212 28.7522C5.98537 28.6283 5.7999 28.5587 5.6065 28.5587C5.41311 28.5587 5.22763 28.6283 5.09088 28.7522C4.95413 28.876 4.8773 29.0441 4.8773 29.2192L4.48314 32.6827C4.47132 32.8225 4.4915 32.963 4.54243 33.0953C4.59335 33.2277 4.67393 33.3491 4.77909 33.452C4.88425 33.5548 5.01174 33.6369 5.15356 33.693C5.29538 33.7491 5.44846 33.7781 5.60322 33.7781C5.75797 33.7781 5.91106 33.7491 6.05287 33.693C6.19469 33.6369 6.32218 33.5548 6.42734 33.452C6.53251 33.3491 6.61308 33.2277 6.664 33.0953C6.71493 32.963 6.73511 32.8225 6.72329 32.6827H6.72986ZM5.61307 33.4087C5.46784 33.4099 5.32548 33.3721 5.20393 33.3001C5.08238 33.2281 4.98707 33.1251 4.93001 33.0041C4.87295 32.8831 4.8567 32.7495 4.88329 32.6202C4.90989 32.4909 4.97814 32.3715 5.07946 32.2773C5.18078 32.183 5.31063 32.118 5.45265 32.0905C5.59467 32.063 5.7425 32.0741 5.87754 32.1226C6.01257 32.171 6.12875 32.2546 6.21145 32.3627C6.29415 32.4709 6.33967 32.5988 6.34227 32.7303C6.34401 32.8183 6.32648 32.9058 6.29069 32.9877C6.25491 33.0695 6.20157 33.1441 6.13377 33.2072C6.06597 33.2703 5.98505 33.3206 5.89568 33.3552C5.80631 33.3897 5.71025 33.408 5.61307 33.4087V33.4087Z" fill="#425A66"/>
<path d="M38 19.9238V25.1369C35.9421 27.7178 33.2374 29.8193 30.1081 31.2686C26.9789 32.7179 23.5145 33.4736 20 33.4736C16.4855 33.4736 13.0211 32.7179 9.89188 31.2686C6.76263 29.8193 4.05786 27.7178 2 25.1369V19.9238C2 15.5993 3.89642 11.4519 7.27208 8.39401C10.6477 5.33611 15.2261 3.61819 20 3.61819C24.7739 3.61819 29.3523 5.33611 32.7279 8.39401C36.1036 11.4519 38 15.5993 38 19.9238Z" fill="#375DF1" stroke="#425A66" stroke-width="3" stroke-miterlimit="10"/>
<path d="M19.9999 23.7622C15.2738 23.7709 10.6591 22.462 6.78242 20.0131C6.67717 19.9466 6.5874 19.8621 6.51822 19.7642C6.44905 19.6664 6.40182 19.5571 6.37925 19.4427C6.35668 19.3284 6.3592 19.2111 6.38667 19.0976C6.41415 18.984 6.46603 18.8766 6.53936 18.7812C6.61268 18.6859 6.70603 18.6045 6.81405 18.5419C6.92208 18.4792 7.04267 18.4364 7.16894 18.416C7.29522 18.3956 7.4247 18.3978 7.55 18.4227C7.6753 18.4476 7.79396 18.4946 7.89921 18.561C11.4531 20.7939 15.6749 21.9904 19.9999 21.9904C24.325 21.9904 28.5468 20.7939 32.1007 18.561C32.3132 18.4285 32.5752 18.3778 32.829 18.4202C33.0828 18.4626 33.3076 18.5946 33.454 18.7872C33.6003 18.9797 33.6562 19.217 33.6094 19.4469C33.5626 19.6768 33.4169 19.8805 33.2043 20.0131C29.3309 22.4589 24.7215 23.7677 19.9999 23.7622V23.7622Z" fill="#425A66"/>
<path d="M31.089 24.5774L30.6949 21.114C30.6949 20.9388 30.6181 20.7708 30.4813 20.6469C30.3446 20.523 30.1591 20.4534 29.9657 20.4534C29.7723 20.4534 29.5868 20.523 29.4501 20.6469C29.3133 20.7708 29.2365 20.9388 29.2365 21.114L28.8423 24.5774C28.8305 24.7172 28.8507 24.8577 28.9016 24.9901C28.9525 25.1225 29.0331 25.2439 29.1383 25.3467C29.2434 25.4496 29.3709 25.5316 29.5128 25.5877C29.6546 25.6439 29.8077 25.6728 29.9624 25.6728C30.1172 25.6728 30.2702 25.6439 30.4121 25.5877C30.5539 25.5316 30.6814 25.4496 30.7865 25.3467C30.8917 25.2439 30.9723 25.1225 31.0232 24.9901C31.0741 24.8577 31.0943 24.7172 31.0825 24.5774H31.089ZM29.9657 25.3035C29.8205 25.3023 29.6789 25.2622 29.5587 25.1883C29.4386 25.1143 29.3453 25.0098 29.2906 24.8879C29.236 24.766 29.2223 24.6322 29.2514 24.5033C29.2806 24.3744 29.3512 24.2562 29.4543 24.1636C29.5575 24.071 29.6886 24.0081 29.8311 23.9829C29.9737 23.9576 30.1213 23.9712 30.2553 24.0218C30.3894 24.0724 30.5039 24.1578 30.5845 24.2673C30.665 24.3768 30.708 24.5054 30.708 24.637C30.708 24.8137 30.6305 24.9833 30.4925 25.1083C30.3545 25.2332 30.1674 25.3035 29.9723 25.3035H29.9657Z" fill="#425A66"/>
<path d="M21.6554 30.5701H18.3445C17.3794 30.5701 16.597 31.2788 16.597 32.1531V35.1524C16.597 36.0266 17.3794 36.7353 18.3445 36.7353H21.6554C22.6205 36.7353 23.4029 36.0266 23.4029 35.1524V32.1531C23.4029 31.2788 22.6205 30.5701 21.6554 30.5701Z" fill="#375DF1"/>
<path d="M21.6555 31.8446C21.8537 31.846 22.0437 31.9167 22.1857 32.0421C22.3277 32.1674 22.4108 32.3375 22.4175 32.517V35.4925C22.4158 35.6751 22.335 35.8498 22.1924 35.9789C22.0499 36.108 21.8571 36.1813 21.6555 36.1828H18.3708C18.1692 36.1813 17.9764 36.108 17.8339 35.9789C17.6913 35.8498 17.6105 35.6751 17.6088 35.4925V32.517C17.6105 32.3344 17.6913 32.1597 17.8339 32.0306C17.9764 31.9015 18.1692 31.8283 18.3708 31.8267H21.6555V31.8446ZM21.6555 30.0414H18.3708C18.01 30.0391 17.6522 30.1013 17.318 30.2246C16.9837 30.3479 16.6797 30.5298 16.4233 30.7598C16.167 30.9898 15.9633 31.2635 15.824 31.5651C15.6847 31.8666 15.6126 32.1901 15.6117 32.517V35.4925C15.6134 36.1486 15.9019 36.7774 16.414 37.2413C16.9262 37.7052 17.6203 37.9665 18.3445 37.9681H21.6292C22.3535 37.9665 23.0476 37.7052 23.5597 37.2413C24.0718 36.7774 24.3603 36.1486 24.3621 35.4925V32.517C24.3603 31.8609 24.0718 31.2322 23.5597 30.7682C23.0476 30.3043 22.3535 30.043 21.6292 30.0414H21.6555Z" fill="#425A66"/>
<path d="M29.7817 38.7527H10.2117C9.28818 38.7558 8.40361 39.09 7.75122 39.6821C7.09882 40.2742 6.73165 41.0761 6.72992 41.9127V49.0538C6.72992 49.2117 6.79913 49.363 6.92233 49.4746C7.04553 49.5862 7.21262 49.6489 7.38685 49.6489C7.56108 49.6489 7.72818 49.5862 7.85138 49.4746C7.97458 49.363 8.04379 49.2117 8.04379 49.0538V41.9127C8.04545 41.3901 8.27356 40.889 8.67901 40.5172C9.08447 40.1455 9.63485 39.9328 10.2117 39.925H29.7817C30.3654 39.925 30.9252 40.1351 31.3379 40.5089C31.7506 40.8828 31.9825 41.3899 31.9825 41.9186V49.0598C31.9825 49.2176 32.0517 49.369 32.1749 49.4806C32.2981 49.5922 32.4652 49.6549 32.6394 49.6549C32.8136 49.6549 32.9807 49.5922 33.1039 49.4806C33.2271 49.369 33.2963 49.2176 33.2963 49.0598V41.9186C33.2963 41.5014 33.2053 41.0882 33.0284 40.7029C32.8516 40.3177 32.5924 39.9679 32.2658 39.6736C31.9391 39.3794 31.5515 39.1466 31.1252 38.9886C30.6989 38.8305 30.2424 38.7504 29.7817 38.7527V38.7527Z" fill="#425A66"/>
<path d="M32.6263 49.9881C32.3689 49.9866 32.1226 49.8933 31.9407 49.7284C31.7587 49.5636 31.6557 49.3405 31.654 49.1074V41.9662C31.654 41.5164 31.4567 41.085 31.1056 40.767C30.7545 40.4489 30.2783 40.2702 29.7817 40.2702H10.2117C9.7151 40.2702 9.23888 40.4489 8.88776 40.767C8.53665 41.085 8.33939 41.5164 8.33939 41.9662V49.1074C8.33939 49.3441 8.23557 49.5712 8.05077 49.7386C7.86597 49.906 7.61533 50 7.35399 50C7.09264 50 6.842 49.906 6.6572 49.7386C6.47241 49.5712 6.36859 49.3441 6.36859 49.1074V41.9662C6.36159 41.5059 6.45598 41.0489 6.64623 40.622C6.83647 40.1951 7.11876 39.8069 7.47658 39.48C7.83441 39.1531 8.26059 38.8941 8.7302 38.7181C9.19982 38.5421 9.70345 38.4527 10.2117 38.4552H29.7817C30.7957 38.4552 31.7682 38.8201 32.4853 39.4696C33.2023 40.1191 33.6051 41 33.6051 41.9186V49.0598C33.6113 49.1797 33.5906 49.2995 33.5442 49.4119C33.4978 49.5243 33.4267 49.6271 33.3352 49.7139C33.2437 49.8007 33.1336 49.8697 33.0118 49.9169C32.8899 49.964 32.7588 49.9883 32.6263 49.9881V49.9881ZM10.2117 39.6275H29.7817C30.4525 39.6275 31.0958 39.8689 31.5701 40.2985C32.0445 40.7282 32.3109 41.311 32.3109 41.9186V49.0598C32.3109 49.1387 32.3455 49.2144 32.4071 49.2702C32.4687 49.326 32.5523 49.3573 32.6394 49.3573C32.7265 49.3573 32.8101 49.326 32.8717 49.2702C32.9333 49.2144 32.9679 49.1387 32.9679 49.0598V41.9186C32.9679 41.1579 32.6343 40.4283 32.0404 39.8904C31.4466 39.3525 30.6412 39.0503 29.8014 39.0503H10.2117C9.37528 39.0534 8.57425 39.3562 7.98346 39.8925C7.39266 40.4288 7.0601 41.155 7.05837 41.9127V49.0538C7.05837 49.1327 7.09297 49.2084 7.15457 49.2642C7.21617 49.32 7.29972 49.3514 7.38684 49.3514C7.47395 49.3514 7.5575 49.32 7.6191 49.2642C7.6807 49.2084 7.7153 49.1327 7.7153 49.0538V41.9127C7.71697 41.3112 7.97969 40.7344 8.44674 40.3069C8.91379 39.8793 9.54771 39.6353 10.2117 39.6275Z" fill="#425A66"/>
<path d="M24.5788 6.31397C24.3418 6.31397 24.1146 6.2287 23.947 6.07693C23.7795 5.92515 23.6854 5.71929 23.6854 5.50464C23.6854 3.36229 22.043 1.61866 20.0328 1.61866C18.0226 1.61866 16.3802 3.36229 16.3802 5.50464C16.3802 5.71929 16.2861 5.92515 16.1186 6.07693C15.951 6.2287 15.7238 6.31397 15.4868 6.31397C15.2499 6.31397 15.0226 6.2287 14.8551 6.07693C14.6875 5.92515 14.5934 5.71929 14.5934 5.50464C14.5934 2.46965 17.0372 0 20.0328 0C23.0284 0 25.4722 2.46965 25.4722 5.50464C25.4722 5.71929 25.3781 5.92515 25.2105 6.07693C25.043 6.2287 24.8157 6.31397 24.5788 6.31397V6.31397Z" fill="#42697D"/>
<path d="M23.2321 12.3304H16.8336C16.1588 12.3304 15.6117 12.826 15.6117 13.4373V15.8891C15.6117 16.5004 16.1588 16.9959 16.8336 16.9959H23.2321C23.907 16.9959 24.454 16.5004 24.454 15.8891V13.4373C24.454 12.826 23.907 12.3304 23.2321 12.3304Z" fill="#425A66"/>
</svg>
